<svg width="20" height="22" viewBox="0 0 20 22" fill="none" xmlns="http://www.w3.org/2000/svg">
<path d="M10.8314 19.375C11.0385 19.0163 11.4971 18.8935 11.8558 19.1006C12.2145 19.3077 12.3373 19.7663 12.1302 20.125C11.8889 20.5429 11.5422 20.8905 11.1243 21.1318C10.7064 21.3731 10.2319 21.4999 9.74933 21.5C9.26678 21.5 8.79227 21.373 8.37433 21.1318C7.95629 20.8905 7.60886 20.543 7.36749 20.125C7.16037 19.7663 7.28321 19.3077 7.6419 19.1006C8.00061 18.8935 8.45919 19.0163 8.66632 19.375C8.77603 19.565 8.93431 19.7223 9.12433 19.832C9.31432 19.9417 9.52996 20 9.74933 20C9.96859 19.9999 10.1844 19.9417 10.3743 19.832C10.5641 19.7224 10.7217 19.5648 10.8314 19.375Z" fill="#181D27"/>
<path d="M14.9987 6.75C14.9987 5.35779 14.4459 4.02262 13.4615 3.03809C12.477 2.05352 11.141 1.5 9.74866 1.5C8.35636 1.50007 7.02125 2.05358 6.03674 3.03809C5.05225 4.02264 4.49866 5.35767 4.49866 6.75C4.49866 9.07791 4.13324 10.6827 3.5553 11.9062C2.98272 13.1183 2.22413 13.9007 1.56506 14.5811L1.52503 14.6406C1.51445 14.6624 1.50651 14.6859 1.50256 14.71C1.49484 14.7576 1.50167 14.8064 1.52112 14.8506C1.54063 14.8948 1.57245 14.9325 1.61292 14.959C1.6535 14.9855 1.70118 15 1.74963 15H17.7496C17.7978 14.9999 17.845 14.9861 17.8854 14.96C17.9259 14.9336 17.9585 14.8958 17.9781 14.8516C17.9977 14.8073 18.0035 14.7578 17.9957 14.71C17.988 14.6622 17.9667 14.6178 17.9342 14.582C17.2738 13.9013 16.5145 13.1187 15.942 11.9072C15.3638 10.6835 14.9987 9.07798 14.9987 6.75ZM16.4987 6.75C16.4987 8.92102 16.8391 10.2944 17.2985 11.2666C17.7585 12.2402 18.3616 12.8688 19.027 13.5547C19.0325 13.5604 19.0382 13.5664 19.0436 13.5723C19.2718 13.8231 19.4219 14.135 19.4762 14.4697C19.5305 14.8045 19.4864 15.1479 19.3492 15.458C19.212 15.7681 18.9879 16.0318 18.7037 16.2168C18.4551 16.3786 18.1701 16.4738 17.8756 16.4951L17.7487 16.5H1.74866C1.40959 16.4998 1.07757 16.4011 0.79358 16.2158C0.509521 16.0305 0.284901 15.7664 0.148073 15.4561C0.0112868 15.1458 -0.0316286 14.8024 0.0230728 14.4678C0.0778452 14.133 0.228054 13.8209 0.456666 13.5703L0.472291 13.5537C1.13645 12.868 1.73982 12.2394 2.19983 11.2656C2.65896 10.2935 2.99866 8.92056 2.99866 6.75C2.99866 4.95979 3.71033 3.24243 4.9762 1.97656C6.24197 0.710978 7.95871 6.5152e-05 9.74866 0C11.5388 0 13.2562 0.710769 14.5221 1.97656C15.788 3.24243 16.4987 4.95979 16.4987 6.75Z" fill="#181D27"/>
</svg>
