<svg width="13" height="13" viewBox="0 0 13 13" fill="none" xmlns="http://www.w3.org/2000/svg">
<path d="M11.6667 6.27083C11.6667 3.2908 9.25087 0.875 6.27083 0.875C3.2908 0.875 0.875 3.2908 0.875 6.27083C0.875 9.25087 3.2908 11.6667 6.27083 11.6667C9.25087 11.6667 11.6667 9.25087 11.6667 6.27083ZM12.5417 6.27083C12.5417 9.73412 9.73412 12.5417 6.27083 12.5417C2.80755 12.5417 0 9.73412 0 6.27083C0 2.80755 2.80755 0 6.27083 0C9.73412 0 12.5417 2.80755 12.5417 6.27083Z" fill="#252B37"/>
<path d="M5.11565 3.21541C5.561 2.95367 6.08479 2.85808 6.59392 2.94539C7.10309 3.03272 7.56519 3.29757 7.89788 3.69278C8.23043 4.08787 8.41238 4.58799 8.41171 5.10441L8.40488 5.25423C8.33653 5.98787 7.77678 6.49099 7.34189 6.78092C7.09671 6.94436 6.85447 7.06476 6.67538 7.14436C6.5852 7.18444 6.50917 7.21485 6.45493 7.23551C6.42793 7.24579 6.40622 7.25386 6.39055 7.25943C6.38279 7.26219 6.37642 7.26467 6.37176 7.26627C6.36942 7.26708 6.367 7.26747 6.36549 7.26798C6.36484 7.2682 6.36426 7.26839 6.36378 7.26855L6.36321 7.26912C6.13398 7.34553 5.88534 7.22149 5.80893 6.99226C5.73272 6.76313 5.85667 6.51551 6.08579 6.43912L6.09718 6.43513C6.10711 6.4316 6.12319 6.42593 6.14389 6.41804C6.18534 6.40225 6.24619 6.37789 6.31992 6.34513C6.4689 6.27891 6.66434 6.18102 6.85654 6.05289C7.26752 5.7789 7.53659 5.45539 7.53671 5.10441V5.10327C7.53712 4.79342 7.42806 4.49323 7.22853 4.25618C7.02891 4.01905 6.75131 3.86026 6.44581 3.80786C6.14044 3.75554 5.82654 3.81325 5.55942 3.97021C5.29223 4.12724 5.08864 4.37343 4.98577 4.66577C4.90559 4.8937 4.656 5.01369 4.42807 4.93351C4.20021 4.8533 4.08076 4.6037 4.1609 4.37581C4.33233 3.88848 4.67028 3.47716 5.11565 3.21541Z" fill="#252B37"/>
<path d="M6.27653 8.75C6.51815 8.75 6.71403 8.94588 6.71403 9.1875C6.71403 9.42913 6.51815 9.625 6.27653 9.625H6.27083C6.02921 9.625 5.83333 9.42913 5.83333 9.1875C5.83333 8.94588 6.02921 8.75 6.27083 8.75H6.27653Z" fill="#252B37"/>
</svg>
