<svg width="18" height="19" viewBox="0 0 18 19" fill="none" xmlns="http://www.w3.org/2000/svg">
<path d="M14.8471 11.7726C15.107 12.0325 15.0404 12.3589 14.6967 12.4943L0.423646 18.1562C0.0799751 18.2916 -0.0897123 18.1219 0.047756 17.7803L5.70973 3.50728C5.84505 3.16361 6.16939 3.09702 6.43144 3.35692L14.8471 11.7726Z" fill="#5B3DF5"/>
<path d="M11.4872 13.768L13.7104 12.8852L5.31621 4.49316L4.43555 6.71413L11.4872 13.768Z" fill="#D9D2FF"/>
<path d="M8.26236 -7.41428e-05L8.11914 2.78857L9.23031 2.84564L9.37353 0.0569929L8.26236 -7.41428e-05Z" fill="#D9D2FF"/>
<path d="M14.2972 0.688799L13.2363 3.27173L14.2139 3.67325L15.2748 1.09032L14.2972 0.688799Z" fill="#D9D2FF"/>
<path d="M11.5147 2.96776L10.2012 3.44092L10.6401 4.65948L11.9537 4.18632L11.5147 2.96776Z" fill="#5B3DF5"/>
<path d="M15.7661 6.0413L12.9805 6.23511L13.0589 7.3622L15.8445 7.16839L15.7661 6.0413Z" fill="#D9D2FF"/>
<path d="M15.6656 8.87116L15.416 10.1443L16.8599 10.4273L17.1094 9.15418L15.6656 8.87116Z" fill="#5B3DF5"/>
<path d="M17.9446 4.01765L16.4746 4.08105L16.5305 5.3772L18.0005 5.31379L17.9446 4.01765Z" fill="#5B3DF5"/>
<path d="M3.83352 12.2044C3.73686 12.4127 3.48985 12.5051 3.2815 12.4084C3.07315 12.3117 2.9808 12.0647 3.07746 11.8564L4.29962 9.19508C4.39628 8.98673 4.64329 8.89437 4.85164 8.99103C5.05999 9.08769 5.15236 9.3347 5.0557 9.54305L3.83352 12.2044Z" fill="white"/>
</svg>
