<svg width="16" height="16" viewBox="0 0 16 16" fill="none" xmlns="http://www.w3.org/2000/svg">
<path d="M3.33333 7.33333C2.96667 7.33333 2.65289 7.20289 2.392 6.942C2.13111 6.68111 2.00044 6.36711 2 6V3.33333C2 2.96667 2.13067 2.65289 2.392 2.392C2.65333 2.13111 2.96711 2.00044 3.33333 2H6C6.36667 2 6.68067 2.13067 6.942 2.392C7.20333 2.65333 7.33378 2.96711 7.33333 3.33333V6C7.33333 6.36667 7.20289 6.68067 6.942 6.942C6.68111 7.20333 6.36711 7.33378 6 7.33333H3.33333ZM3.33333 14C2.96667 14 2.65289 13.8696 2.392 13.6087C2.13111 13.3478 2.00044 13.0338 2 12.6667V10C2 9.63333 2.13067 9.31956 2.392 9.05867C2.65333 8.79778 2.96711 8.66711 3.33333 8.66667H6C6.36667 8.66667 6.68067 8.79733 6.942 9.05867C7.20333 9.32 7.33378 9.63378 7.33333 10V12.6667C7.33333 13.0333 7.20289 13.3473 6.942 13.6087C6.68111 13.87 6.36711 14.0004 6 14H3.33333ZM10 7.33333C9.63333 7.33333 9.31956 7.20289 9.05867 6.942C8.79778 6.68111 8.66711 6.36711 8.66667 6V3.33333C8.66667 2.96667 8.79733 2.65289 9.05867 2.392C9.32 2.13111 9.63378 2.00044 10 2H12.6667C13.0333 2 13.3473 2.13067 13.6087 2.392C13.87 2.65333 14.0004 2.96711 14 3.33333V6C14 6.36667 13.8696 6.68067 13.6087 6.942C13.3478 7.20333 13.0338 7.33378 12.6667 7.33333H10ZM10 14C9.63333 14 9.31956 13.8696 9.05867 13.6087C8.79778 13.3478 8.66711 13.0338 8.66667 12.6667V10C8.66667 9.63333 8.79733 9.31956 9.05867 9.05867C9.32 8.79778 9.63378 8.66711 10 8.66667H12.6667C13.0333 8.66667 13.3473 8.79733 13.6087 9.05867C13.87 9.32 14.0004 9.63378 14 10V12.6667C14 13.0333 13.8696 13.3473 13.6087 13.6087C13.3478 13.87 13.0338 14.0004 12.6667 14H10Z" fill="#334155"/>
</svg>
