<svg width="16" height="16" viewBox="0 0 16 16" fill="none" xmlns="http://www.w3.org/2000/svg">
<path d="M5.4094 2.8C5.4094 2.58783 5.32511 2.38434 5.17509 2.23431C5.02506 2.08429 4.82157 2 4.6094 2H2.8C2.58783 2 2.38434 2.08429 2.23431 2.23431C2.08429 2.38434 2 2.58783 2 2.8V4.4C2 4.61217 2.08429 4.81566 2.23431 4.96569C2.38434 5.11571 2.58783 5.2 2.8 5.2H4.6094C4.82157 5.2 5.02506 5.11571 5.17509 4.96569C5.32511 4.81566 5.4094 4.61217 5.4094 4.4V2.8ZM2.8 9.6C2.58783 9.6 2.38434 9.51571 2.23431 9.36569C2.08429 9.21566 2 9.01217 2 8.8V7.2C2 6.98783 2.08429 6.78434 2.23431 6.63432C2.38434 6.48429 2.58783 6.4 2.8 6.4H4.6094C4.82157 6.4 5.02506 6.48429 5.17509 6.63432C5.32511 6.78434 5.4094 6.98783 5.4094 7.2V8.8C5.4094 9.01217 5.32511 9.21566 5.17509 9.36569C5.02506 9.51571 4.82157 9.6 4.6094 9.6H2.8ZM2.8 10.8C2.58783 10.8 2.38434 10.8843 2.23431 11.0343C2.08429 11.1843 2 11.3878 2 11.6V13.2C2 13.4122 2.08429 13.6157 2.23431 13.7657C2.38434 13.9157 2.58783 14 2.8 14H4.6094C4.82157 14 5.02506 13.9157 5.17509 13.7657C5.32511 13.6157 5.4094 13.4122 5.4094 13.2V11.6C5.4094 11.3878 5.32511 11.1843 5.17509 11.0343C5.02506 10.8843 4.82157 10.8 4.6094 10.8H2.8ZM7.4094 10.8C7.19723 10.8 6.99374 10.8843 6.84372 11.0343C6.69369 11.1843 6.6094 11.3878 6.6094 11.6V13.2C6.6094 13.4122 6.69369 13.6157 6.84372 13.7657C6.99374 13.9157 7.19723 14 7.4094 14H13.2C13.4122 14 13.6157 13.9157 13.7657 13.7657C13.9157 13.6157 14 13.4122 14 13.2V11.6C14 11.3878 13.9157 11.1843 13.7657 11.0343C13.6157 10.8843 13.4122 10.8 13.2 10.8H7.4094ZM13.2 9.6C13.4122 9.6 13.6157 9.51571 13.7657 9.36569C13.9157 9.21566 14 9.01217 14 8.8V7.2C14 6.98783 13.9157 6.78434 13.7657 6.63432C13.6157 6.48429 13.4122 6.4 13.2 6.4H7.4094C7.19723 6.4 6.99374 6.48429 6.84372 6.63432C6.69369 6.78434 6.6094 6.98783 6.6094 7.2V8.8C6.6094 9.01217 6.69369 9.21566 6.84372 9.36569C6.99374 9.51571 7.19723 9.6 7.4094 9.6H13.2ZM14 2.8V4.4C14 4.61217 13.9157 4.81566 13.7657 4.96569C13.6157 5.11571 13.4122 5.2 13.2 5.2H7.4094C7.19723 5.2 6.99374 5.11571 6.84372 4.96569C6.69369 4.81566 6.6094 4.61217 6.6094 4.4V2.8C6.6094 2.58783 6.69369 2.38434 6.84372 2.23431C6.99374 2.08429 7.19723 2 7.4094 2H13.2C13.4122 2 13.6157 2.08429 13.7657 2.23431C13.9157 2.38434 14 2.58783 14 2.8Z" fill="#F8FAFC"/>
</svg>
