<svg width="14" height="14" viewBox="0 0 14 14" fill="none" xmlns="http://www.w3.org/2000/svg">
<path d="M12.25 7C12.25 4.10156 9.89844 1.75 7 1.75C4.10156 1.75 1.75 4.10156 1.75 7C1.75 9.89844 4.10156 12.25 7 12.25C9.89844 12.25 12.25 9.89844 12.25 7Z" stroke="#252B37" stroke-miterlimit="10"/>
<path d="M6.84293 4.54043L6.99989 7.875L7.15657 4.54043C7.15754 4.51911 7.15415 4.49782 7.14661 4.47786C7.13907 4.4579 7.12754 4.43968 7.11272 4.42432C7.0979 4.40897 7.08011 4.3968 7.06042 4.38855C7.04074 4.3803 7.01959 4.37616 6.99825 4.37637C6.97716 4.37657 6.95633 4.38101 6.937 4.38944C6.91768 4.39786 6.90024 4.4101 6.88575 4.42541C6.87125 4.44072 6.85999 4.4588 6.85263 4.47856C6.84528 4.49832 6.84198 4.51937 6.84293 4.54043Z" stroke="#252B37" stroke-linecap="round" stroke-linejoin="round"/>
<path d="M7 10.06C6.89184 10.06 6.78611 10.028 6.69617 9.96787C6.60624 9.90778 6.53615 9.82237 6.49475 9.72244C6.45336 9.62252 6.44253 9.51256 6.46363 9.40647C6.48473 9.30039 6.53682 9.20295 6.6133 9.12646C6.68978 9.04998 6.78723 8.9979 6.89331 8.9768C6.99939 8.9557 7.10935 8.96653 7.20928 9.00792C7.30921 9.04931 7.39462 9.1194 7.45471 9.20934C7.5148 9.29927 7.54688 9.405 7.54688 9.51316C7.54688 9.6582 7.48926 9.7973 7.3867 9.89986C7.28414 10.0024 7.14504 10.06 7 10.06Z" fill="#252B37"/>
</svg>
