<svg width="14" height="14" viewBox="0 0 14 14" fill="none" xmlns="http://www.w3.org/2000/svg">
<path d="M7 0C3.13444 0 0 3.13444 0 7C0 10.8656 3.13444 14 7 14C10.8656 14 14 10.8656 14 7C14 3.13444 10.8656 0 7 0ZM11.1456 5.34722L6.40305 9.70084C6.29222 9.80389 6.15028 9.85444 6.00833 9.85444C5.86639 9.85444 5.7225 9.80194 5.60972 9.69694L2.66194 6.94362C2.42667 6.72389 2.41305 6.35444 2.63472 6.11916C2.85444 5.88388 3.22389 5.87223 3.45917 6.09195L6.01223 8.47777L10.3581 4.48973C10.5953 4.27195 10.9647 4.2875 11.1825 4.52473C11.4003 4.76195 11.3847 5.13139 11.1475 5.34917L11.1456 5.34722Z" fill="#1DB459"/>
</svg>
