<svg width="14" height="14" viewBox="0 0 14 14" fill="none" xmlns="http://www.w3.org/2000/svg">
<path d="M13.8978 12.2413L7.60233 0.45756C7.27198 -0.159969 6.38417 -0.150568 6.06696 0.47447L0.0943751 12.2582C-0.196558 12.8345 0.220131 13.5139 0.865815 13.5139H13.1338C13.787 13.5139 14.2056 12.8175 13.8959 12.2413H13.8978ZM6.99606 4.35607C7.36019 4.35419 7.64926 4.66391 7.62486 5.02617L7.38272 8.41224C7.36958 8.60182 7.21191 8.75011 7.02046 8.75199C6.82901 8.75199 6.66946 8.60745 6.65445 8.416L6.37478 5.03366C6.34474 4.66953 6.63005 4.35795 6.99606 4.35607ZM6.99982 11.453C6.585 11.453 6.24902 11.117 6.24902 10.7022C6.24902 10.2874 6.585 9.95139 6.99982 9.95139C7.41463 9.95139 7.75061 10.2874 7.75061 10.7022C7.75061 11.117 7.41463 11.453 6.99982 11.453Z" fill="#D23838"/>
</svg>
