<svg width="38" height="41" viewBox="0 0 38 41" fill="none" xmlns="http://www.w3.org/2000/svg">
<path d="M31.2219 28.8371C24.7834 26.898 23.0449 20.9415 23.0449 20.9415C23.0449 20.9415 27.7867 16.9407 34.2253 18.8798C37.1089 19.7491 38.6022 22.6299 37.7719 25.3797C36.9417 28.1296 34.1083 29.7064 31.2247 28.8371" fill="#D6EEFA"/>
<path d="M31.1019 28.6143C31.1019 28.567 31.0963 28.5168 31.0935 28.4694C31.0768 28.2466 31.0545 28.0208 31.0239 27.798C31.0211 27.7701 31.0155 27.745 31.01 27.7172C30.9793 27.5082 30.9375 27.302 30.893 27.0959C30.8846 27.0569 30.8762 27.0179 30.8679 26.9762C30.8177 26.7588 30.7564 26.5414 30.6896 26.3241C30.6757 26.2795 30.6617 26.235 30.645 26.1904C30.5726 25.9703 30.4973 25.7475 30.4082 25.5302C30.0014 24.5189 29.8176 23.4351 29.9457 22.3513C30.1296 20.7604 30.4333 18.9412 30.9208 16.9687C33.2472 8.00314 24.8835 5.70743 24.5742 5.61549C24.2622 5.52076 16.0155 2.83772 13.0261 11.6027C12.1986 13.9374 11.4268 15.9768 10.7693 17.6429C10.6969 17.6847 10.644 17.7348 10.6189 17.796C9.66048 20.0249 9.0977 21.3762 9.09213 21.3817L8.63246 22.5129C8.30928 23.3069 8.05291 23.9365 7.8161 24.725C7.50684 25.7614 7.35084 26.8034 7.34527 27.8258C7.3397 29.5309 7.7548 31.183 8.57947 32.6624C8.66305 32.8101 8.74947 32.9578 8.83862 33.0999C9.11723 33.5457 9.4376 33.9747 9.79422 34.3815C9.95859 34.5682 10.1314 34.7493 10.3125 34.9276C10.435 35.0502 10.5632 35.17 10.6941 35.287C10.9365 35.5043 11.19 35.7132 11.4575 35.9138C11.6636 36.0699 11.881 36.2175 12.1011 36.3624C12.2209 36.4404 12.3435 36.5155 12.4661 36.5908C12.6221 36.6855 12.7809 36.7746 12.9453 36.8638C13.1765 36.9892 13.4133 37.109 13.6585 37.2232C14.2686 37.5074 14.9205 37.7581 15.6142 37.9671C15.6728 37.9838 15.7313 37.9978 15.7898 38.0145C16.1018 38.1037 16.4138 38.1844 16.7259 38.2512C17.2134 38.3599 17.6983 38.4436 18.1803 38.5021C19.1972 38.6247 20.2029 38.6413 21.1725 38.5577C21.3703 38.541 21.568 38.5187 21.7631 38.4937C24.6884 38.112 27.2739 36.8136 28.9845 34.8216C29.4414 34.2895 29.8343 33.71 30.1547 33.0859C30.3163 32.7739 30.4584 32.448 30.581 32.1136C30.6423 31.9465 30.6979 31.7765 30.7509 31.6038C30.8177 31.3781 30.8735 31.1496 30.9236 30.9211C30.9348 30.8738 30.9431 30.8292 30.9515 30.7818C30.996 30.5617 31.0295 30.3389 31.0574 30.116C31.0629 30.077 31.0657 30.0352 31.0685 29.9962C31.0908 29.7872 31.1047 29.5756 31.1103 29.3666C31.1103 29.3388 31.1131 29.3137 31.1131 29.2858C31.1186 29.0601 31.1131 28.8373 31.0991 28.6116L31.1019 28.6143Z" fill="#62BFED"/>
<path d="M11.118 16.7569C10.9982 17.0633 10.884 17.3615 10.7725 17.6485C10.7001 17.6902 10.6444 17.7376 10.6193 17.7989C10.3268 18.4787 10.076 19.0749 9.85871 19.5764C4.56243 19.1418 2.36144 15.2524 2.25557 15.0518C1.87667 14.3636 2.13021 13.4972 2.81836 13.1211C3.50373 12.745 4.3646 12.9957 4.74629 13.6783C4.83544 13.8371 6.62968 16.8627 11.1152 16.7569H11.118Z" fill="#4D98D3"/>
<path d="M14.0987 37.421C14.0959 37.4711 14.0959 37.5269 14.0959 37.5743C13.9845 37.5827 13.8563 37.577 13.7143 37.5491C12.6388 37.343 9.78589 38.1845 9.08381 38.4853H9.06987C8.90549 38.5494 8.7356 38.5856 8.57122 38.58C8.29819 38.5772 8.05575 38.488 7.81893 38.3682C6.49277 37.7191 5.94114 36.0809 6.49835 34.6517C6.52064 34.5904 6.54572 34.529 6.57637 34.4677C6.58194 34.4538 6.59032 34.4455 6.59589 34.4316C6.95807 33.735 7.74929 33.4231 8.38172 33.7323C8.72719 33.9023 8.95567 34.2254 9.03647 34.6043C9.07826 34.7631 9.13673 34.9442 9.20917 35.1225C9.52678 34.9943 9.85554 34.8885 10.1927 34.8077C11.2235 35.858 12.5274 36.7523 14.1015 37.4154L14.0987 37.421Z" fill="#FDD700"/>
<path d="M8.10317 38.0961C8.53501 37.9466 8.6219 37.0651 8.29715 36.1273C7.9724 35.1895 7.35899 34.5504 6.92716 34.7C6.49533 34.8495 6.40854 35.731 6.73329 36.6688C7.05804 37.6067 7.67134 38.2456 8.10317 38.0961Z" fill="#DDA129"/>
<path d="M25.0453 28.5976C27.1431 28.5976 29.1658 28.3469 31.0241 27.8176C30.9154 27.0542 30.7121 26.3019 30.4195 25.5691C26.2488 26.8674 20.6349 26.6725 14.032 24.0814C12.274 23.3933 10.6023 22.5017 9.06445 21.4541C8.96694 21.6965 8.63267 22.5156 8.63267 22.5156C8.46829 22.9196 8.3206 23.2819 8.18408 23.6441C9.74984 24.6665 11.4298 25.5441 13.1878 26.235C17.0409 27.7479 21.1754 28.5976 25.0453 28.5976Z" fill="#FDD700"/>
<path d="M12.3966 28.3163C10.725 27.6114 9.08952 26.7532 7.55441 25.7725C7.37889 26.6473 7.31482 27.5223 7.3594 28.3804C8.66884 29.1437 10.0535 29.8402 11.4995 30.4476C16.077 32.3783 20.6488 33.1556 24.6134 33.1556C26.7558 33.1556 28.7228 32.9271 30.4139 32.5287C30.5421 32.2278 30.6563 31.9215 30.751 31.6011C30.9154 31.0578 31.0186 30.5061 31.0715 29.9545C25.3768 31.8267 17.5424 30.4811 12.3994 28.3107L12.3966 28.3163Z" fill="#FDD700"/>
<path d="M11.7867 32.9466C10.4522 32.459 9.1483 31.8518 7.90015 31.1497C8.8279 33.7992 10.9147 36.0754 14.0991 37.421C14.0295 38.7193 14.7706 39.9508 15.9964 40.3575C16.2472 40.4411 16.5007 40.4968 16.7682 40.4634C16.9353 40.4439 17.0997 40.3854 17.2529 40.299C17.2557 40.299 17.2613 40.2991 17.2641 40.2963C17.9049 39.9091 20.3733 39.0063 21.5685 38.5131C24.7836 38.1398 27.6059 36.6633 29.336 34.376C28.8791 34.5487 28.4055 34.6963 27.9096 34.8245C23.6274 35.925 18.2029 35.2925 11.7839 32.941L11.7867 32.9466Z" fill="#FDD700"/>
<path d="M14.2775 36.8053C14.2468 36.8053 14.2162 36.7998 14.1855 36.7858C14.0629 36.7357 14.0044 36.5936 14.0546 36.471C14.4836 35.4318 15.4253 35.3956 15.4643 35.3928C16.601 35.3371 17.1777 35.9611 17.3895 36.276L18.0581 36.1228C18.189 36.0921 18.3172 36.1729 18.3451 36.3039C18.3757 36.432 18.2949 36.5629 18.164 36.5908L17.3226 36.783C17.2112 36.8081 17.0969 36.7524 17.0496 36.6465C17.0356 36.6131 16.6456 35.8163 15.481 35.8692C15.4503 35.8692 14.8012 35.9082 14.4975 36.6493C14.4585 36.7412 14.3694 36.797 14.2747 36.797L14.2775 36.8053Z" fill="#DDA129"/>
<path d="M16.1737 40.0887C16.5869 39.8934 16.5779 39.0076 16.1538 38.1104C15.7297 37.2131 15.0509 36.644 14.6377 36.8393C14.2246 37.0346 14.2335 37.9203 14.6576 38.8176C15.0818 39.7149 15.7605 40.284 16.1737 40.0887Z" fill="#DDA129"/>
<path d="M23.0673 0.00996749C22.29 -0.0819724 21.5852 0.472436 21.4904 1.24696C21.4208 1.82646 21.7133 2.36689 22.1897 2.64271L21.7858 5.55705C21.744 5.84958 21.9501 6.11974 22.2427 6.15874C22.2677 6.16153 22.2928 6.16432 22.3179 6.16432C22.5798 6.16432 22.8083 5.97211 22.8473 5.70465L23.2512 2.78759C23.8029 2.64829 24.2375 2.18592 24.3099 1.58692C24.4019 0.809609 23.8474 0.104693 23.0729 0.00996749H23.0673Z" fill="#4D98D3"/>
<path d="M29.547 2.60645C28.9201 2.1384 28.0314 2.26377 27.5633 2.89064C27.2011 3.37262 27.1984 4.00791 27.4993 4.4899L25.7775 6.8775C25.6048 7.1171 25.6577 7.45148 25.8973 7.62421C25.992 7.69108 26.1006 7.72447 26.2093 7.72447C26.3737 7.72447 26.5381 7.64652 26.6439 7.50164L28.3657 5.1139C28.9006 5.24206 29.4829 5.05536 29.8339 4.5873C30.302 3.96044 30.1766 3.07179 29.5498 2.60373L29.547 2.60645Z" fill="#4D98D3"/>
<path d="M1.13548 12.444C1.16056 12.3576 1.11044 12.2713 1.02407 12.2462C0.940488 12.2211 0.851346 12.2712 0.826271 12.3576C0.809555 12.4189 0.41673 13.8705 1.3222 15.6118C1.35006 15.6675 1.40578 15.6982 1.46429 15.6982C1.48936 15.6982 1.51444 15.6926 1.53952 15.6814C1.61753 15.6396 1.64817 15.5448 1.60638 15.464C0.762206 13.8398 1.12991 12.4579 1.13548 12.444Z" fill="#281E1E"/>
<path d="M0.408258 12.5583C0.433332 12.4719 0.383142 12.3855 0.296775 12.3605C0.213193 12.3354 0.124051 12.3855 0.0989762 12.4719C0.0822599 12.5332 -0.310565 13.9848 0.594901 15.726C0.622761 15.7818 0.678485 15.8123 0.736992 15.8123C0.762067 15.8123 0.787147 15.8068 0.812221 15.7957C0.89023 15.7539 0.920874 15.6591 0.879083 15.5783C0.0349106 13.954 0.402685 12.5722 0.408258 12.5583Z" fill="#281E1E"/>
<path d="M9.21491 4.45085C9.1564 4.42578 7.78014 3.82393 5.92185 4.46473C5.83827 4.49259 5.79366 4.58452 5.82152 4.6681C5.84381 4.73497 5.9079 4.7768 5.97198 4.7768C5.98869 4.7768 6.00818 4.77407 6.0249 4.7685C7.75782 4.1695 9.07004 4.73776 9.08118 4.74333C9.16198 4.77955 9.25671 4.74332 9.29293 4.66253C9.32915 4.58173 9.29292 4.48707 9.21212 4.45085H9.21491Z" fill="#281E1E"/>
<path d="M5.96915 4.03852C5.98587 4.03852 6.00535 4.03565 6.02207 4.03008C7.75221 3.43108 9.06443 3.99948 9.07836 4.00505C9.15915 4.04127 9.25388 4.00504 9.2901 3.92425C9.32632 3.84345 9.29009 3.74879 9.20929 3.71257C9.15079 3.6875 7.77453 3.08565 5.91623 3.72645C5.83265 3.75431 5.78805 3.84624 5.81591 3.92982C5.83819 3.99669 5.90228 4.03852 5.96636 4.03852H5.96915Z" fill="#281E1E"/>
<path d="M8.51273 18.6375C8.5183 18.6597 8.52947 18.6764 8.53783 18.696L8.14502 17.0661L8.50994 18.6375H8.51273Z" fill="#FFB7B6"/>
<path d="M8.3961 17.1942L8.54098 18.7044C8.69421 19.0526 9.3127 19.2087 9.98971 19.0471C10.7113 18.8771 11.2212 18.4147 11.1264 18.019L11.0512 17.7014L10.664 16.8405C9.84767 17.1749 8.71092 17.1915 8.39331 17.1915L8.3961 17.1942Z" fill="#FFB7B6"/>
<path d="M10.2429 16.6455C10.19 16.665 10.1398 16.6844 10.0841 16.7039C10.059 16.7123 10.0339 16.7206 10.0117 16.729C9.82778 16.7875 9.63832 16.8405 9.44329 16.8879C9.22598 16.938 9.00865 16.9769 8.79412 17.0076C8.77741 17.0076 8.76071 17.0104 8.74399 17.0132C8.54897 17.0382 8.3595 17.0577 8.16726 17.0661C8.1589 17.0661 8.15338 17.0661 8.14502 17.0661L8.53783 18.696L8.54341 18.7211V18.7071L8.39574 17.1971C8.71335 17.1971 9.85003 17.1775 10.6663 16.846L11.0536 17.707L10.7583 16.4448C10.7388 16.4532 10.7165 16.4616 10.6942 16.47C10.6469 16.4895 10.5995 16.5117 10.5521 16.5312C10.4491 16.573 10.346 16.6092 10.2401 16.6482L10.2429 16.6455Z" fill="#F99D9D"/>
<path d="M5.55098 16.6176C5.40331 16.5535 5.25842 16.4811 5.11634 16.4059C5.08569 16.3892 5.05502 16.3751 5.02437 16.3584C4.86 16.2637 4.7012 16.1607 4.54518 16.0465C4.49225 16.0075 4.44215 15.9628 4.392 15.9211C4.29171 15.843 4.19418 15.7623 4.09946 15.6759C4.07995 15.6592 4.06046 15.6453 4.04096 15.6286C3.95459 16.2025 3.79296 17.2082 3.79296 17.2082H3.79575C3.78739 17.2584 3.7874 17.3085 3.79854 17.3558C3.88212 17.718 4.48114 17.8852 5.13865 17.732C5.73486 17.5955 6.16669 17.2361 6.17784 16.9018H6.18063V16.846C6.15834 16.8404 6.13605 16.8293 6.11376 16.8209C5.98003 16.7819 5.85183 16.7346 5.72368 16.6845C5.66517 16.6622 5.60669 16.6426 5.54819 16.6176H5.55098Z" fill="#F99D9D"/>
<path d="M14.2606 13.6699C13.9514 13.9541 13.6978 14.1129 13.4833 14.1436C13.4415 14.2077 13.3969 14.2718 13.3524 14.3331C13.3301 14.3665 13.3078 14.3998 13.2855 14.4305C13.2799 14.4361 13.2771 14.4445 13.2715 14.4501C13.2409 14.4919 13.2074 14.528 13.1768 14.5698C13.1322 14.6283 13.0876 14.6869 13.0403 14.7454C13.2604 14.751 13.5167 14.7259 13.7842 14.6646C14.5281 14.4891 15.0713 14.0962 14.9989 13.7898L14.751 13.2075C14.6089 13.3468 14.4473 13.4944 14.2578 13.6672L14.2606 13.6699Z" fill="#F99D9D"/>
<path d="M11.7475 15.896C11.6862 15.9378 11.6222 15.9767 11.5581 16.0157C11.6222 15.9767 11.6835 15.9378 11.7475 15.896Z" fill="#FFB7B6"/>
<path d="M12.1906 15.5757C12.1349 15.6202 12.0792 15.6592 12.0234 15.7009C12.0792 15.6592 12.1377 15.6174 12.1906 15.5757Z" fill="#FFB7B6"/>
<path d="M12.5946 15.2245C12.5528 15.2635 12.5054 15.3025 12.4636 15.3415C12.5082 15.3025 12.5528 15.2663 12.5946 15.2245Z" fill="#FFB7B6"/>
<path d="M12.9902 14.8066C12.9902 14.8066 12.9679 14.8345 12.9568 14.8484C12.9679 14.8345 12.979 14.8206 12.9902 14.8066Z" fill="#FFB7B6"/>
<path d="M13.2823 14.4389C13.2823 14.4389 13.2823 14.4361 13.2851 14.4333C13.3074 14.3999 13.3297 14.3665 13.352 14.3358C13.3631 14.3191 13.3714 14.3024 13.3826 14.2885C13.3492 14.3386 13.3158 14.3916 13.2795 14.4389H13.2823Z" fill="#FFB7B6"/>
<path d="M2.39771 10.5969C2.40606 10.5356 2.41724 10.4771 2.42838 10.4186C2.41724 10.4771 2.40606 10.5384 2.39771 10.5969Z" fill="#FFB7B6"/>
<path d="M2.34448 11.2015C2.34448 11.1486 2.34727 11.0984 2.35006 11.0455C2.34727 11.0956 2.34448 11.1486 2.34448 11.2015Z" fill="#FFB7B6"/>
<path d="M9.63019 15.4447C10.7028 15.1939 11.6501 14.7231 12.419 14.099C12.3243 14.06 12.238 13.9988 12.1767 13.9152C11.99 13.6589 11.5108 12.7338 11.6807 11.5748C11.8145 10.6582 12.1349 10.2877 12.5054 9.98955C12.6976 9.83632 12.9484 9.77501 13.188 9.83352L14.0879 10.0453C13.9318 10.0342 13.7675 10.0676 13.6003 10.1623C12.6698 10.6945 12.4748 12.185 12.7172 13.1908C12.8787 13.8734 13.1127 14.1854 13.461 14.1492C13.4666 14.1492 13.475 14.1492 13.4805 14.1492C13.4805 14.1492 13.4805 14.1492 13.4833 14.1492C13.6951 14.1158 13.9514 13.9569 14.2606 13.6755C14.4473 13.5028 14.6117 13.3551 14.7538 13.2158C15.2441 12.7338 15.4586 12.3744 15.3193 11.6556C15.1522 10.7975 14.6813 10.1177 14.1213 10.0536C13.7564 8.60209 12.8592 7.4208 11.678 6.64071C11.3604 6.46797 10.8226 6.29252 10.3351 6.70764C9.93666 6.37053 9.76397 5.82718 9.75561 5.80489C8.83343 5.58201 7.83876 5.56256 6.84414 5.79659C4.59858 6.32316 3.05512 7.95018 2.53413 9.93663C2.52856 10.427 2.57594 10.9285 2.69295 11.4328C3.43683 14.6033 6.34265 16.222 9.63298 15.4502L9.63019 15.4447ZM13.2242 12.8648C13.0682 12.1934 13.1239 11.4773 13.3719 11.4188C13.6171 11.3603 13.7815 12.0596 13.8678 12.6586C13.904 12.901 13.8761 13.2297 13.7396 13.3802C13.5697 13.5668 13.3802 13.5363 13.2242 12.8648ZM14.932 11.7726C14.9822 12.0122 14.9432 12.224 14.8151 12.3856C14.659 12.5834 14.5392 12.5918 14.3386 11.9315C14.1381 11.2712 14.0628 10.8114 14.3052 10.739C14.5476 10.6665 14.8039 11.182 14.932 11.7726ZM12.3299 8.47953C12.4051 8.42381 12.5305 8.46277 12.6085 8.56864C12.6865 8.67451 12.6865 8.80553 12.6085 8.86125C12.5305 8.91698 12.4079 8.87788 12.3299 8.77201C12.2519 8.66614 12.2519 8.53525 12.3299 8.47953ZM10.739 9.86984C10.8923 9.83362 11.0483 9.92835 11.0818 10.0844C11.118 10.2376 11.0233 10.3936 10.8672 10.4271C10.714 10.4633 10.558 10.3685 10.5246 10.2125C10.4883 10.0593 10.583 9.90327 10.739 9.86984ZM8.17588 8.18977C8.2316 8.23435 8.26227 8.30125 8.26784 8.36812C8.27341 8.43498 8.25391 8.50189 8.20098 8.55204C8.14526 8.60498 8.05889 8.66058 7.92516 8.71352C7.92516 8.71352 7.49054 9.03395 7.30109 9.7221C7.26766 9.84747 7.23979 9.98399 7.22586 10.1344C7.2175 10.2097 7.2147 10.2876 7.2147 10.3684C7.2147 10.53 7.22582 10.7056 7.25647 10.8923C7.25647 10.8923 7.25647 10.9035 7.26204 10.9202C7.27319 10.9731 7.29551 11.09 7.28993 11.2154C7.28993 11.2154 7.28993 11.221 7.28993 11.2238C7.28993 11.2489 7.28435 11.2712 7.27878 11.2935C7.25928 11.3576 7.22309 11.4105 7.17573 11.4495C7.17294 11.4495 7.17015 11.455 7.16736 11.4578C7.1395 11.4801 7.10604 11.5024 7.06982 11.5136C7.03639 11.5247 7.0002 11.5303 6.9612 11.533C6.95284 11.533 6.94446 11.533 6.9361 11.533C6.89988 11.533 6.8609 11.5247 6.82468 11.5107C6.68538 11.4522 6.50708 11.3575 6.33991 11.1959C6.17275 11.0371 6.01394 10.8143 5.91364 10.505C5.91364 10.505 5.89131 10.427 5.8746 10.296C5.82445 9.90321 5.81333 9.0368 6.52656 8.396C6.81909 8.13412 7.2008 7.97526 7.59364 7.99197C7.65772 7.99197 7.72178 8.00307 7.78586 8.017C7.84715 8.02815 7.90842 8.0477 7.96692 8.07278C7.97807 8.07835 7.98924 8.08108 8.00039 8.08665C8.06168 8.11452 8.12015 8.14805 8.17309 8.19263L8.17588 8.18977ZM5.60715 6.45134C5.60715 6.45134 6.56836 6.3705 7.719 6.68533L7.5212 6.87755C7.5212 6.87755 6.64077 6.59623 5.2561 6.67145L5.60715 6.45134Z" fill="#FFB7B6"/>
<path d="M8.7943 17.0049C9.00883 16.9742 9.22616 16.9352 9.44347 16.885C8.82776 17.0299 8.2232 17.0912 7.64648 17.0717C7.81922 17.0772 7.99471 17.0717 8.17023 17.0634C8.35968 17.055 8.55194 17.0355 8.74696 17.0104C8.76368 17.0104 8.78037 17.0104 8.79709 17.0049H8.7943Z" fill="#FFB7B6"/>
<path d="M10.19 16.6622C10.1287 16.6845 10.0702 16.7068 10.0117 16.7263C10.0368 16.7179 10.0619 16.7096 10.0842 16.7012C10.1204 16.6901 10.1538 16.6733 10.19 16.6622Z" fill="#FFB7B6"/>
<path d="M10.5548 16.5285C10.6022 16.509 10.6495 16.4894 10.6969 16.4671C10.7164 16.4588 10.7359 16.4476 10.7554 16.4392C10.6885 16.4699 10.6217 16.5006 10.552 16.5285H10.5548Z" fill="#FFB7B6"/>
<path d="M13.2825 14.4389C13.3187 14.3888 13.3493 14.3386 13.3855 14.2885C13.4162 14.2411 13.4496 14.1965 13.4803 14.1463C13.4747 14.1463 13.4663 14.1463 13.4608 14.1463C13.2797 14.1853 13.1683 14.1686 13.1683 14.1686L12.6027 14.1407C12.5386 14.1379 12.4773 14.1213 12.4188 14.0962C11.6498 14.7203 10.6998 15.1912 9.62995 15.4419C6.33963 16.2137 3.4338 14.5949 2.68993 11.4243C2.57291 10.92 2.52553 10.4214 2.53111 9.92831C2.51717 9.98403 2.50606 10.0396 2.49213 10.0954C2.46706 10.2012 2.44756 10.3071 2.42806 10.413C2.41691 10.4715 2.40574 10.5329 2.39738 10.5914C2.37509 10.739 2.36118 10.8894 2.35004 11.0399C2.34725 11.09 2.34446 11.143 2.34446 11.1959C2.33889 11.3296 2.33889 11.4634 2.34167 11.5971C2.34167 11.6333 2.34167 11.6695 2.34167 11.7085C2.35003 11.8757 2.36394 12.0429 2.38623 12.2101C2.3918 12.2519 2.39739 12.2936 2.40296 12.3354C2.42803 12.5109 2.45871 12.6864 2.5005 12.862C2.77353 14.021 3.33352 14.9682 4.0969 15.6731C4.19162 15.7594 4.28915 15.8403 4.38945 15.9183C4.44238 15.9601 4.48969 16.0046 4.54262 16.0436C4.69586 16.1551 4.85472 16.261 5.02188 16.3557C5.05253 16.3724 5.08313 16.3863 5.11378 16.403C5.25587 16.481 5.39797 16.5508 5.54842 16.6148C5.60692 16.6399 5.6654 16.6594 5.72391 16.6816C5.85206 16.7318 5.98026 16.7792 6.11399 16.8182C6.59598 16.9659 7.10861 17.0522 7.64353 17.0689C8.22024 17.0857 8.8248 17.0272 9.44052 16.8823C9.63276 16.8377 9.82222 16.7819 10.0089 16.7234C10.0702 16.7039 10.1287 16.6816 10.1872 16.6593C10.2039 16.6538 10.2206 16.6482 10.2401 16.6399C10.346 16.6037 10.4491 16.5647 10.5521 16.5229C10.6218 16.495 10.6859 16.4643 10.7555 16.4336C10.8614 16.3863 10.9673 16.3362 11.0704 16.286C11.1372 16.2526 11.2041 16.2164 11.271 16.1802C11.3685 16.1273 11.466 16.0687 11.5607 16.013C11.6248 15.974 11.6889 15.935 11.7502 15.8932C11.8449 15.8319 11.934 15.7651 12.0232 15.6982C12.0789 15.6564 12.1374 15.6146 12.1904 15.5728C12.2851 15.4976 12.3743 15.4196 12.4634 15.3388C12.508 15.2998 12.5526 15.2636 12.5943 15.2218C12.7225 15.0992 12.8451 14.9738 12.9593 14.8457C12.9705 14.8317 12.9816 14.8178 12.9927 14.8039C13.0596 14.7287 13.1209 14.6506 13.1822 14.5698C13.2128 14.5308 13.2463 14.4919 13.2769 14.4501C13.2797 14.4445 13.2825 14.4416 13.2853 14.4361L13.2825 14.4389Z" fill="#F9ACAC"/>
<path d="M12.7143 13.1908C12.4747 12.185 12.667 10.6944 13.5975 10.1623C13.7647 10.0676 13.9263 10.0341 14.0851 10.0453L13.1852 9.83348C12.9456 9.77776 12.6948 9.8335 12.5026 9.98952C12.1321 10.2904 11.8145 10.6609 11.6779 11.5748C11.508 12.7338 11.9872 13.6588 12.1739 13.9152C12.2352 14.0015 12.3215 14.0627 12.4162 14.099C12.4747 14.1212 12.5361 14.1408 12.6001 14.1436L13.1657 14.1715C13.1657 14.1715 13.2743 14.1882 13.4582 14.1491C13.1072 14.1882 12.8759 13.8733 12.7143 13.1908Z" fill="#F99D9D"/>
<path d="M13.7396 13.3775C13.8761 13.227 13.9012 12.8983 13.8678 12.6559C13.7786 12.0569 13.617 11.3576 13.3719 11.4161C13.1267 11.4746 13.0682 12.1906 13.2242 12.862C13.3802 13.5334 13.5724 13.5641 13.7396 13.3775Z" fill="#281E1E"/>
<path d="M14.3411 11.9286C14.5417 12.5889 14.6587 12.5806 14.8175 12.3828C14.9429 12.224 14.9847 12.0094 14.9345 11.7698C14.8092 11.1792 14.5501 10.661 14.3077 10.7362C14.0653 10.8086 14.1433 11.2683 14.3411 11.9286Z" fill="#281E1E"/>
<path d="M10.8698 10.427C11.0231 10.3908 11.1205 10.2375 11.0843 10.0843C11.0481 9.93106 10.8949 9.83354 10.7416 9.86976C10.5884 9.90598 10.4909 10.0592 10.5271 10.2124C10.5633 10.3657 10.7166 10.4632 10.8698 10.427Z" fill="#281E1E"/>
<path d="M12.608 8.86128C12.6833 8.80556 12.6833 8.67454 12.608 8.56867C12.53 8.4628 12.4074 8.42384 12.3294 8.47956C12.2514 8.53528 12.2542 8.66617 12.3294 8.77204C12.4074 8.87791 12.53 8.91701 12.608 8.86128Z" fill="#281E1E"/>
<path d="M7.78833 8.01426C7.84962 8.0254 7.91089 8.04482 7.9694 8.0699C7.91089 8.04482 7.84962 8.02819 7.78833 8.01426Z" fill="#F99D9D"/>
<path d="M7.2146 10.3684C7.2146 10.2876 7.22018 10.2096 7.22575 10.1344C7.2174 10.2096 7.2146 10.2876 7.2146 10.3684Z" fill="#F99D9D"/>
<path d="M8.26755 8.3681C8.27312 8.43496 8.25362 8.50187 8.20068 8.55202C8.25083 8.50187 8.27312 8.43496 8.26755 8.3681Z" fill="#F99D9D"/>
<path d="M7.92485 8.71349C8.05858 8.66056 8.14773 8.60495 8.20067 8.55202C8.14495 8.60495 8.05858 8.66056 7.92485 8.71349Z" fill="#F99D9D"/>
<path d="M7.28961 11.2238C7.28961 11.2238 7.28961 11.2182 7.28961 11.2154C7.29518 11.09 7.27286 10.9703 7.26172 10.9202C7.27286 10.9731 7.29518 11.09 7.28961 11.2154C7.28961 11.2154 7.28961 11.221 7.28961 11.2238Z" fill="#F99D9D"/>
<path d="M6.74938 9.44345C7.04192 8.12565 7.72728 8.0226 7.78857 8.01424C7.72449 8.00031 7.66043 7.992 7.59635 7.98921C7.20352 7.97249 6.82181 8.13122 6.52927 8.39311C5.81604 9.03111 5.82716 9.89766 5.87731 10.2933C5.89403 10.4242 5.91635 10.5022 5.91635 10.5022C6.01665 10.8115 6.17547 11.0344 6.34263 11.1932C6.50979 11.352 6.6881 11.4495 6.8274 11.508C6.86362 11.5247 6.90259 11.5303 6.93881 11.5303C6.94717 11.5303 6.95555 11.5303 6.96391 11.5303C7.00013 11.5303 7.03632 11.5246 7.07254 11.5107C7.10876 11.4968 7.13943 11.4773 7.17008 11.455C7.17286 11.455 7.17566 11.4494 7.17844 11.4466C7.22581 11.4048 7.26199 11.3519 7.28149 11.2906C7.27313 11.3129 7.26475 11.338 7.2536 11.3575C6.55988 10.4799 6.75217 9.44073 6.75217 9.44073L6.74938 9.44345Z" fill="#F99D9D"/>
<path d="M7.78824 8.01426C7.72695 8.01983 7.04158 8.12567 6.74905 9.44347C6.74905 9.44347 6.55683 10.4826 7.25055 11.3602C7.2617 11.338 7.2728 11.3157 7.27837 11.2935C7.28394 11.2712 7.28953 11.2489 7.28953 11.2238C7.28953 11.2238 7.28953 11.2182 7.28953 11.2154C7.2951 11.09 7.27278 10.9703 7.26164 10.9202C7.25885 10.9034 7.25606 10.8923 7.25606 10.8923C7.22541 10.7056 7.21151 10.53 7.2143 10.3684C7.2143 10.2876 7.21988 10.2096 7.22545 10.1344C7.23938 9.98396 7.26725 9.84745 7.30068 9.72208C7.49013 9.03392 7.92475 8.71349 7.92475 8.71349C8.05848 8.66056 8.14763 8.60495 8.20057 8.55202C8.25072 8.50187 8.273 8.43496 8.26743 8.36809C8.26186 8.30123 8.22841 8.23711 8.17547 8.18975C8.12254 8.14517 8.06406 8.11177 8.00277 8.08391C7.99163 8.07834 7.98045 8.07547 7.96931 8.0699C7.9108 8.04761 7.84953 8.02819 7.78824 8.01426Z" fill="#F9ACAC"/>
<path d="M10.332 6.70199C10.8224 6.28686 11.3573 6.46232 11.6749 6.63506C11.8477 6.72978 11.9563 6.82456 11.9563 6.82456C11.9702 6.42615 11.934 5.32011 11.934 5.32011C11.934 4.73504 11.6721 4.58184 11.6721 4.58184C10.7639 4.40074 10.332 6.70199 10.332 6.70199Z" fill="#F9ACAC"/>
<path d="M10.3321 6.7021C10.3321 6.7021 10.764 4.40085 11.6722 4.58195C11.6722 4.58195 11.1123 4.20291 10.4965 4.93565L9.75269 5.79663C9.75826 5.8217 9.93373 6.36498 10.3321 6.7021Z" fill="#F99D9D"/>
<path d="M7.5212 6.87755L7.719 6.68533C6.56836 6.36772 5.60715 6.45135 5.60715 6.45135L5.65449 6.65744C5.65449 6.65744 5.36755 6.65752 5.2561 6.67145C6.64077 6.59623 7.5212 6.87755 7.5212 6.87755Z" fill="#F99D9D"/>
<path d="M5.60715 6.45132L5.2561 6.67143C5.37033 6.66029 5.65449 6.65742 5.65449 6.65742L5.60715 6.45132Z" fill="#DD9396"/>
<path d="M4.23064 13.6784C4.54825 14.7538 4.47026 16.2526 3.83226 16.4421C3.19425 16.6316 2.2414 15.4363 1.92379 14.3609C1.60618 13.2854 2.12439 12.653 2.76239 12.4635C3.4004 12.2741 3.91303 12.6029 4.23064 13.6784Z" fill="#4D98D3"/>
<path d="M23.8446 18.9606C21.8108 18.7433 16.5368 17.4338 12.6251 15.6089C12.4858 15.5449 12.3884 15.4139 12.3661 15.2607C12.3271 14.9904 12.2017 14.6617 11.8479 14.3943C11.6417 14.163 11.4411 13.9708 11.3798 13.8315L11.0511 13.1767C10.8895 12.8535 10.4911 12.7254 10.1707 12.8981C9.90323 13.0318 9.77229 13.3244 9.82801 13.6058C8.6718 13.0569 7.80253 13.4916 7.43198 14.1074C6.84413 15.0853 7.60474 16.116 8.4322 16.7874C8.90583 17.1719 9.29588 17.3586 9.96453 17.4728C9.96453 17.4728 9.98401 17.4757 10.0119 17.4812C14.3832 19.8577 21.1199 21.5489 23.605 21.7996C23.6524 21.8052 23.7025 21.8079 23.7499 21.8079C24.4938 21.8079 25.1262 21.2285 25.1707 20.4624C25.2153 19.699 24.608 19.0414 23.8474 18.9606H23.8446Z" fill="#4D98D3"/>
<path d="M26.7615 39.753C26.4607 39.6527 26.0567 39.5914 25.6082 39.5914C25.1596 39.5914 24.7557 39.6527 24.4548 39.753H23.9365V40.1738C23.9365 40.4942 24.6832 40.756 25.6054 40.756C26.5275 40.756 27.2742 40.4942 27.2742 40.1738V39.753H26.756H26.7615Z" fill="#BFBFBF"/>
<path d="M25.608 40.3352C26.5297 40.3352 27.2769 40.0746 27.2769 39.753C27.2769 39.4314 26.5297 39.1708 25.608 39.1708C24.6864 39.1708 23.9392 39.4314 23.9392 39.753C23.9392 40.0746 24.6864 40.3352 25.608 40.3352Z" fill="#D8D8D8"/>
<path d="M25.608 40.0985C26.245 40.0985 26.7614 39.9438 26.7614 39.753C26.7614 39.5622 26.245 39.4076 25.608 39.4076C24.971 39.4076 24.4546 39.5622 24.4546 39.753C24.4546 39.9438 24.971 40.0985 25.608 40.0985Z" fill="#BFBFBF"/>
<path d="M29.1487 38.5801C28.9648 38.5188 28.7169 38.4798 28.4438 38.4798C28.1708 38.4798 27.9228 38.5188 27.739 38.5801H27.4214V38.8364C27.4214 39.0342 27.8783 39.1931 28.4438 39.1931C29.0094 39.1931 29.4664 39.0342 29.4664 38.8364V38.5801H29.1487Z" fill="#C06200"/>
<path d="M28.4438 38.9366C29.0085 38.9366 29.4664 38.777 29.4664 38.5801C29.4664 38.3831 29.0085 38.2235 28.4438 38.2235C27.8791 38.2235 27.4214 38.3831 27.4214 38.5801C27.4214 38.777 27.8791 38.9366 28.4438 38.9366Z" fill="#DD7F2A"/>
<path d="M28.4441 38.7918C28.8334 38.7918 29.149 38.697 29.149 38.5801C29.149 38.4631 28.8334 38.3683 28.4441 38.3683C28.0548 38.3683 27.7393 38.4631 27.7393 38.5801C27.7393 38.697 28.0548 38.7918 28.4441 38.7918Z" fill="#C06200"/>
<path d="M31.1717 39.9481C30.9878 39.8868 30.7398 39.8477 30.4668 39.8477C30.1938 39.8477 29.9458 39.8868 29.7619 39.9481H29.4443V40.2044C29.4443 40.4022 29.9012 40.5609 30.4668 40.5609C31.0324 40.5609 31.4893 40.4022 31.4893 40.2044V39.9481H31.1717Z" fill="#C06200"/>
<path d="M30.4668 40.3046C31.0315 40.3046 31.4893 40.145 31.4893 39.9481C31.4893 39.7511 31.0315 39.5914 30.4668 39.5914C29.9021 39.5914 29.4443 39.7511 29.4443 39.9481C29.4443 40.145 29.9021 40.3046 30.4668 40.3046Z" fill="#DD7F2A"/>
<path d="M30.4671 40.1597C30.8564 40.1597 31.172 40.065 31.172 39.9481C31.172 39.8311 30.8564 39.7363 30.4671 39.7363C30.0778 39.7363 29.7622 39.8311 29.7622 39.9481C29.7622 40.065 30.0778 40.1597 30.4671 40.1597Z" fill="#C06200"/>
<path d="M29.3185 17.0366C29.43 16.5998 28.9306 16.0951 28.203 15.9094C27.4755 15.7237 26.7953 15.9272 26.6838 16.3641C26.5723 16.8009 27.0717 17.3055 27.7993 17.4913C28.5268 17.677 29.207 17.4734 29.3185 17.0366Z" fill="#B693C2"/>
<path d="M18.132 14.18C18.2435 13.7432 17.7441 13.2386 17.0165 13.0528C16.289 12.8671 15.6088 13.0707 15.4973 13.5075C15.3858 13.9443 15.8852 14.449 16.6127 14.6348C17.3403 14.8205 18.0205 14.6169 18.132 14.18Z" fill="#B693C2"/>
<path d="M24.9203 15.5868C24.859 15.4447 24.7114 15.2552 24.3603 15.166L20.6521 14.2188C20.301 14.1296 20.081 14.2244 19.9584 14.3219C19.833 14.4194 19.6826 14.6144 19.6853 14.985C19.6881 15.9071 19.9444 16.9157 21.8166 17.3921C22.2206 17.4952 22.5689 17.5397 22.8726 17.5397C23.9814 17.5397 24.4941 16.9351 24.8423 16.2999C25.0206 15.9739 24.9844 15.7317 24.9203 15.5868Z" fill="#281E1E"/>
<path d="M25.4132 13.8817C25.09 14.5531 25.3296 15.3582 25.9481 15.6842C26.5666 16.0102 27.3272 15.7288 27.6504 15.0573C27.9736 14.3859 27.7339 13.5808 27.1154 13.2548C26.4969 12.9289 25.7364 13.2103 25.4132 13.8817Z" fill="#281E1E"/>
<path d="M26.4969 14.648C26.5442 14.6173 26.5888 14.5894 26.6417 14.6033C26.7003 14.6173 26.7448 14.6619 26.7978 14.6814C27.0123 14.7566 27.2603 14.5393 27.3077 14.2941C27.3439 14.1075 27.2826 13.9068 27.1572 13.7898C26.951 13.5976 26.6696 13.5084 26.3938 13.5836C26.2211 13.631 26.0594 13.7341 25.9285 13.8762C25.7613 14.0601 25.7474 14.3665 25.8867 14.5643C25.9647 14.6757 26.0817 14.7371 26.2043 14.7455C26.2795 14.7511 26.3548 14.7287 26.4216 14.6924C26.4439 14.6813 26.4662 14.6646 26.4885 14.6507L26.4969 14.648Z" fill="white"/>
<path d="M27.0451 15.3528C27.0529 15.1991 26.901 15.0665 26.7058 15.0567C26.5106 15.0468 26.3461 15.1633 26.3383 15.317C26.3305 15.4707 26.4824 15.6033 26.6776 15.6132C26.8728 15.623 27.0373 15.5065 27.0451 15.3528Z" fill="white"/>
<path d="M17.8547 12.2797C17.6708 13.0041 18.1083 13.7395 18.8298 13.9261C19.5542 14.11 20.2898 13.6754 20.4764 12.951C20.6631 12.2266 20.2229 11.4912 19.5013 11.3046C18.777 11.1207 18.0414 11.5581 17.8547 12.2797Z" fill="#281E1E"/>
<path d="M19.039 12.7617C19.0808 12.7227 19.1226 12.6837 19.1811 12.6865C19.2452 12.6865 19.3038 12.7199 19.365 12.7283C19.6074 12.7561 19.8191 12.4914 19.8136 12.2407C19.808 12.0485 19.6993 11.8674 19.5405 11.781C19.2786 11.6362 18.9638 11.611 18.6908 11.742C18.5208 11.8256 18.3732 11.9593 18.2701 12.1264C18.1364 12.341 18.1921 12.6447 18.3844 12.8091C18.4902 12.901 18.6295 12.9373 18.7604 12.9178C18.8384 12.9066 18.9137 12.8704 18.9777 12.8202C19 12.8035 19.0195 12.7839 19.039 12.7644V12.7617Z" fill="white"/>
<path d="M19.4067 13.6194C19.6143 13.5933 19.7668 13.4471 19.7474 13.2929C19.728 13.1387 19.544 13.0349 19.3364 13.061C19.1288 13.0872 18.9762 13.2333 18.9956 13.3875C19.015 13.5417 19.199 13.6456 19.4067 13.6194Z" fill="white"/>
</svg>
