<svg width="16" height="16" viewBox="0 0 16 16" fill="none" xmlns="http://www.w3.org/2000/svg">
<path d="M7.99984 13.3333C6.51095 13.3333 5.24984 12.8167 4.2165 11.7833C3.18317 10.75 2.6665 9.48888 2.6665 7.99999C2.6665 6.5111 3.18317 5.24999 4.2165 4.21666C5.24984 3.18333 6.51095 2.66666 7.99984 2.66666C8.7665 2.66666 9.49984 2.82488 10.1998 3.14133C10.8998 3.45777 11.4998 3.91066 11.9998 4.49999V3.33333C11.9998 3.14444 12.0638 2.98621 12.1918 2.85866C12.3198 2.7311 12.4781 2.6671 12.6665 2.66666C12.8549 2.66621 13.0134 2.73021 13.1418 2.85866C13.2703 2.9871 13.3341 3.14533 13.3332 3.33333V6.66666C13.3332 6.85555 13.2692 7.01399 13.1412 7.14199C13.0132 7.26999 12.8549 7.33377 12.6665 7.33333H9.33317C9.14428 7.33333 8.98606 7.26933 8.8585 7.14133C8.73095 7.01333 8.66695 6.8551 8.6665 6.66666C8.66606 6.47821 8.73006 6.31999 8.8585 6.19199C8.98695 6.06399 9.14517 5.99999 9.33317 5.99999H11.4665C11.1109 5.37777 10.6249 4.88888 10.0085 4.53333C9.39206 4.17777 8.7225 3.99999 7.99984 3.99999C6.88873 3.99999 5.94428 4.38888 5.1665 5.16666C4.38873 5.94444 3.99984 6.88888 3.99984 7.99999C3.99984 9.1111 4.38873 10.0555 5.1665 10.8333C5.94428 11.6111 6.88873 12 7.99984 12C8.75539 12 9.44717 11.8084 10.0752 11.4253C10.7032 11.0422 11.1892 10.5282 11.5332 9.88333C11.6221 9.72777 11.7472 9.61955 11.9085 9.55866C12.0698 9.49777 12.2336 9.49488 12.3998 9.54999C12.5776 9.60555 12.7054 9.72221 12.7832 9.89999C12.8609 10.0778 12.8554 10.2444 12.7665 10.4C12.3109 11.2889 11.6609 12 10.8165 12.5333C9.97206 13.0667 9.03317 13.3333 7.99984 13.3333Z" fill="#6C8BA9"/>
</svg>
