<svg width="80" height="95" viewBox="0 0 80 95" fill="none" xmlns="http://www.w3.org/2000/svg">
<path d="M63.0119 79.246C62.4802 79.5016 61.9484 79.702 61.3476 79.7158C60.9747 79.7227 60.6018 79.6467 60.2427 79.5016H60.2081C59.0342 78.9906 55.1393 77.8096 52.2803 77.4505C54.7664 75.8967 56.8519 73.8871 58.4817 71.5529C58.972 71.6979 59.4554 71.8707 59.9319 72.0641C60.0908 71.6636 60.2289 71.27 60.3118 70.9109C60.4913 70.0753 60.9954 69.357 61.762 68.9841C63.1569 68.2936 64.9041 68.9909 65.719 70.5309C65.7259 70.5654 65.7397 70.5863 65.7604 70.6071C65.8226 70.7452 65.8778 70.8763 65.9262 71.0144C67.1554 74.1773 65.94 77.8029 63.005 79.2531L63.0119 79.246Z" fill="#FDD700"/>
<path d="M65.4684 75.8346C66.1885 73.7551 65.9981 71.8013 65.043 71.4705C64.0879 71.1398 62.73 72.5575 62.0099 74.637C61.2898 76.7165 61.4802 78.6704 62.4353 79.0011C63.3904 79.3318 64.7483 77.9141 65.4684 75.8346Z" fill="#DDA129"/>
<path d="M10.7066 49.1366C25.6439 50.504 34.2279 39.6412 34.2279 39.6412C34.2279 39.6412 27.764 27.3972 12.8267 26.0299C6.13497 25.4153 0.637931 30.125 0.0509361 36.5059C-0.536059 42.8869 4.00797 48.522 10.7066 49.1366Z" fill="#D6EEFA"/>
<path d="M43.8818 6.67305C43.1636 6.60399 23.9378 4.35948 21.2583 24.849C20.699 28.7438 19.9531 32.2729 19.1521 35.3874C18.3786 38.3707 16.8731 41.112 14.7876 43.384C11.749 46.6919 9.79467 50.7526 9.37341 55.2621C8.17871 68.0723 19.815 79.6327 35.3669 81.0829C50.9188 82.5331 61.3743 73.0308 62.5621 60.2206C62.5897 59.9374 62.6035 59.6612 62.6173 59.385C62.6242 59.4264 62.6311 59.4538 62.6311 59.4538C62.9281 52.7345 62.4309 39.3029 62.424 39.2891C62.4861 36.14 62.5828 32.5973 62.7554 28.7301C63.9018 8.0956 44.6 6.75593 43.8749 6.68687L43.8818 6.67305Z" fill="#62BFED"/>
<path d="M15.0981 43.0459C13.8827 44.3165 12.833 45.7046 11.9697 47.1893C21.6448 54.7236 35.9468 58.6945 50.1866 58.8395C50.3937 58.8395 50.594 58.8395 50.8012 58.8395C54.8066 58.8395 58.805 58.4319 62.6999 57.6654C62.7206 56.8021 62.7206 55.9319 62.7206 54.9513C62.7206 54.9513 62.7206 52.9833 62.7206 52.3963C58.66 53.2734 54.4613 53.7154 50.2487 53.674C34.4275 53.5151 22.6461 49.2196 15.105 43.0459H15.0981Z" fill="#FDD700"/>
<path d="M50.1603 68.9631C53.6616 68.9148 57.1076 68.6319 60.45 68.1485C61.258 66.4082 61.8519 64.5504 62.2248 62.5891C58.2332 63.3349 54.1312 63.7424 50.0774 63.7976C37.6124 63.9772 20.2926 60.2136 10.0789 51.5813C9.73361 52.7691 9.485 53.9917 9.3676 55.2554C9.29854 55.9943 9.27783 56.7261 9.29164 57.4513C18.1104 63.6734 32.4123 68.9702 49.007 68.9702C49.3869 68.9702 49.7736 68.9701 50.1534 68.9631H50.1603Z" fill="#FDD700"/>
<path d="M66.2646 10.727C65.4497 12.267 63.5299 12.8469 61.9899 12.032C60.9402 11.4657 60.3532 10.4022 60.3325 9.29731C58.2745 8.64817 56.5273 9.10398 55.1047 10.7061C54.428 10.2227 53.7374 9.80157 53.0537 9.43557C55.1807 6.83899 58.0397 6.03106 61.1888 7.07384C62.1487 6.06559 63.6818 5.76163 64.9663 6.4453C66.5063 7.274 67.0863 9.18704 66.2576 10.727H66.2646Z" fill="#4D98D3"/>
<path d="M52.7704 6.32077C54.5176 6.26552 55.8849 4.80151 55.8228 3.05434C55.7675 1.30718 54.3035 -0.0601144 52.5563 0.00203769C51.3547 0.0434724 50.3464 0.754796 49.8492 1.75614C44.656 2.23263 43.7099 6.53491 43.3301 8.28899C43.192 8.93122 43.5994 9.56642 44.2417 9.70454C44.3246 9.72526 44.4143 9.73219 44.4972 9.73219C45.0428 9.73219 45.54 9.35246 45.6574 8.79309C46.2099 6.24486 47.1559 4.53242 49.6766 4.16642C50.1116 5.4578 51.334 6.37619 52.7635 6.32785L52.7704 6.32077Z" fill="#4D98D3"/>
<path d="M63.8602 44.6688C63.7497 44.6757 63.6392 44.6826 63.5357 44.6826C61.9266 44.6826 60.5523 43.4669 60.3728 41.8303C59.8894 37.1688 59.1988 34.531 58.7085 33.1498C58.5151 32.6111 58.2734 32.3693 58.2113 32.3486C56.5608 31.7616 55.7044 29.9317 56.2983 28.2881C56.8922 26.6376 58.7154 25.7813 60.3659 26.3752C60.8907 26.5685 61.388 26.8172 61.8437 27.1349C62.8796 27.8393 63.729 28.8614 64.3229 30.1113C64.461 30.3945 64.5853 30.6982 64.6958 31.0089C65.5867 33.5019 66.2634 36.9204 66.7054 41.1744C66.885 42.9216 65.6143 44.4752 63.8671 44.6617L63.8602 44.6688Z" fill="#4D98D3"/>
<path d="M56.3412 35.0903C56.0926 35.0903 55.844 34.9936 55.6507 34.8071C54.38 33.571 53.0126 33.0255 50.6025 32.8045C48.5238 32.6111 46.5833 33.2535 45.0157 33.7783L44.5875 33.9162C44.0627 34.0889 43.5033 33.7989 43.3376 33.281C43.1649 32.763 43.455 32.1967 43.9729 32.031L44.3872 31.893C46.0377 31.3475 48.2959 30.6016 50.782 30.8295C53.6203 31.0919 55.4297 31.8376 57.0318 33.3845C57.4255 33.7643 57.4324 34.3929 57.0525 34.7865C56.8592 34.9868 56.5968 35.0903 56.3412 35.0903Z" fill="#281E1E"/>
<path d="M56.9482 73.5005C53.7992 73.901 50.6225 74.0734 47.4665 73.9698C45.8437 73.9146 44.2622 73.8249 42.7153 73.7075C41.9971 73.2172 41.127 73.0378 40.3052 73.314C40.1878 73.3554 40.0842 73.4176 39.9806 73.4728C28.3236 72.285 19.0905 69.2395 12.4954 64.3709C11.6115 63.7217 10.7828 63.0381 10.0024 62.3268C12.0949 69.8748 18.5864 76.2489 27.2532 79.3013C27.3568 79.3772 27.4604 79.4463 27.5916 79.5016C30.1605 80.572 35.8717 82.6574 37.3219 83.5344C37.3288 83.5344 37.3357 83.5344 37.3495 83.5344C37.6879 83.7209 38.047 83.8521 38.4199 83.8936C39.0138 83.9626 39.5732 83.8453 40.1326 83.6589C41.6242 83.1616 42.7913 82.112 43.5164 80.793C49.0963 79.8124 53.6749 77.202 56.9551 73.5005H56.9482Z" fill="#FDD700"/>
<path d="M43.9451 75.7792C43.738 75.7792 43.5377 75.6549 43.4548 75.4477C42.7781 73.8041 41.3416 73.7213 41.2795 73.7213C38.6414 73.5901 37.8059 75.4203 37.7989 75.441C37.6954 75.6758 37.4399 75.8 37.1981 75.7448L35.3336 75.3166C35.0435 75.2544 34.8709 74.9644 34.933 74.6813C34.9952 74.3981 35.2852 74.2116 35.5684 74.2807L37.0462 74.6189C37.5158 73.9214 38.7727 72.5404 41.3209 72.6578C41.3969 72.6578 43.4893 72.7408 44.4354 75.0404C44.5459 75.3097 44.4147 75.6203 44.1454 75.7377C44.0763 75.7653 44.0073 75.7792 43.9451 75.7792Z" fill="#DDA129"/>
<path d="M43.0887 80.1367C44.0292 78.1471 44.0509 76.1841 43.1372 75.7522C42.2234 75.3203 40.72 76.5829 39.7795 78.5724C38.8391 80.562 38.8177 82.5251 39.7314 82.9571C40.6452 83.389 42.1483 82.1262 43.0887 80.1367Z" fill="#DDA129"/>
<path d="M41.2722 26.7414L40.5332 27.9499C40.5332 27.9499 39.8979 27.8047 38.8896 27.7149C39.3247 27.1003 39.8496 26.5411 40.4366 26.0646C41.0305 26.4445 41.2722 26.7481 41.2722 26.7481V26.7414Z" fill="#95DDF9"/>
<path d="M47.6457 28.143C47.4799 29.8004 46.0643 31.0572 44.4138 30.995C44.1997 31.1677 43.8475 31.6236 43.6955 32.0656C41.3614 38.854 36.7552 43.0321 31.051 43.5155C30.7195 43.5362 30.3742 43.5566 30.0427 43.5566C27.7017 43.5566 25.4366 42.8731 23.5513 41.6646C24.1383 39.0818 24.8357 36.8097 25.6161 34.9797C26.5484 36.4575 28.5304 37.3554 30.5192 37.1897C33.5923 36.9272 36.2027 34.3098 37.6875 30.0006C37.9568 29.1996 38.3643 28.4193 38.8753 27.708C39.3104 27.0934 39.8352 26.5339 40.4222 26.0574C41.3338 25.3254 42.4111 24.8213 43.5644 24.6763C43.9649 24.6279 44.3723 24.621 44.7936 24.6625C46.5408 24.842 47.8114 26.4029 47.6319 28.1501L47.6457 28.143Z" fill="#4D98D3"/>
<path d="M68.7359 25.7675C68.6116 25.733 68.5909 25.5673 68.7014 25.5052C70.0964 24.7179 72.6929 23.2263 74.1915 24.5246C74.6404 24.9113 74.9166 25.5256 74.8476 26.1195C74.7026 27.3833 73.2661 27.915 72.175 27.4869C71.5328 27.2314 70.9872 26.7137 70.3657 26.396C69.8754 26.1474 69.3575 25.9402 68.8326 25.7952C68.7981 25.7883 68.7635 25.7744 68.729 25.7675H68.7359Z" fill="#95DDF9"/>
<path d="M74.3708 30.3874C74.3363 30.3045 74.4261 30.2354 74.5159 30.2768C75.5586 30.7809 77.4992 31.7065 77.3473 33.0324C77.2989 33.426 77.0434 33.8057 76.6636 33.9853C75.8556 34.3651 74.944 33.7438 74.7576 32.9703C74.6471 32.5145 74.7299 32.0173 74.6678 31.5477C74.6125 31.1817 74.5297 30.8087 74.3985 30.4565C74.3916 30.4358 74.3847 30.415 74.3708 30.3874Z" fill="#95DDF9"/>
<path d="M29.1309 23.1573C29.2138 23.1573 29.2414 23.0466 29.1793 22.9914C28.3575 22.2801 26.8382 20.9405 25.754 21.562C25.4294 21.7484 25.1946 22.1075 25.1808 22.5011C25.1532 23.3436 26.0233 23.8961 26.7623 23.7787C27.1973 23.7097 27.5979 23.4473 28.026 23.3299C28.3644 23.2401 28.7166 23.178 29.0688 23.1573C29.0895 23.1573 29.1102 23.1573 29.1379 23.1573H29.1309Z" fill="#95DDF9"/>
<path d="M69.3026 43.8813C69.2888 43.7777 69.2473 43.7293 69.1575 43.8122C68.3081 44.5995 66.9062 45.8148 67.438 47.0372C67.6728 47.5758 68.3841 47.9626 68.9435 47.6657C69.1645 47.5483 69.3164 47.3343 69.4061 47.0995C69.5926 46.6023 69.565 46.0151 69.5166 45.4972C69.4683 44.9585 69.3716 44.4198 69.3026 43.8881V43.8813Z" fill="#95DDF9"/>
<path d="M23.3509 56.892C23.3509 56.7469 23.3993 56.6712 23.5374 56.7679C24.8495 57.714 27.011 59.1642 26.4792 60.9528C26.2444 61.7401 25.326 62.4028 24.5042 62.0851C24.1796 61.9608 23.931 61.6846 23.7653 61.3807C23.42 60.7247 23.3578 59.9031 23.3302 59.1711C23.3026 58.4114 23.344 57.6516 23.3509 56.892Z" fill="#95DDF9"/>
<path d="M35.0775 23.2056C35.2018 23.254 35.2846 23.2331 35.2432 23.0812C34.8427 21.631 34.2626 19.2762 32.5361 19.1657C31.7696 19.1173 30.8994 19.7043 30.9132 20.533C30.9132 20.8576 31.079 21.1616 31.2931 21.4033C31.7558 21.9143 32.4532 22.2317 33.0817 22.4941C33.7377 22.7635 34.4145 22.9708 35.0775 23.2056Z" fill="#95DDF9"/>
<path d="M79.9301 75.0888C79.4397 71.4494 77.6097 69.5367 75.1858 68.4939C75.3929 63.0521 75.462 56.1531 75.1789 46.775C74.7507 32.9635 70.8213 28.9443 66.0632 27.6391C64.758 27.28 63.6876 27.1283 62.8036 27.1145C62.4445 27.1075 62.1199 27.1143 61.8299 27.1488C62.1683 27.3767 62.4998 27.6462 62.7898 27.95C63.3906 28.5508 63.9086 29.2828 64.3091 30.1253C66.0494 30.5396 67.7827 31.4788 68.6321 33.4194C71.6431 40.3113 70.7868 56.5676 69.1846 67.2992C68.4733 67.2509 67.7482 67.2299 67.0438 67.1954C65.0135 67.1263 62.9763 67.0506 60.946 66.9816C60.3037 68.6182 59.475 70.1582 58.4737 71.5739C58.9709 71.7189 59.4612 71.8777 59.9377 72.0641C60.0965 71.6636 60.2346 71.27 60.3175 70.9109C60.4971 70.0753 61.0012 69.3571 61.7677 68.9842C63.1627 68.2936 64.9099 68.9909 65.7248 70.5309C65.7317 70.5654 65.7455 70.5864 65.7662 70.6071C65.8284 70.7452 65.8836 70.8763 65.932 71.0144C67.1612 74.1773 65.9458 77.803 63.0108 79.2532C62.479 79.5087 61.9473 79.7087 61.3465 79.7225C60.9736 79.7295 60.6007 79.6535 60.2416 79.5084H60.207C59.033 78.9974 55.1451 77.8165 52.286 77.4643C49.7516 79.0665 46.8097 80.2131 43.5087 80.7931C42.7836 82.1122 41.6166 83.1687 40.1249 83.659C39.5793 83.8385 39.0131 83.9698 38.4192 83.8869C38.0462 83.8455 37.6871 83.7212 37.3488 83.5278C37.3419 83.5278 37.3349 83.5207 37.328 83.5207C35.8778 82.6506 30.1667 80.565 27.5908 79.4946C27.4941 79.4463 27.4113 79.3912 27.3215 79.329C25.381 78.6523 23.5578 77.8028 21.8659 76.8152C20.5193 66.1113 21.2858 51.6437 23.5647 41.6648C24.1517 39.0821 24.8492 36.8099 25.6296 34.9799C25.8713 34.4343 26.1061 33.9233 26.3616 33.4538C29.5176 27.5976 35.8847 27.418 38.8957 27.7012C39.3307 27.0866 39.8556 26.5274 40.4426 26.0509C39.2755 25.2982 36.7134 24.2209 31.8793 24.5386C21.0993 25.2568 17.8329 36.3818 15.1811 49.8412C13.5996 57.8726 13.5236 64.7094 14.1728 70.2824C13.2336 69.1084 12.4049 67.8793 11.7143 66.581C8.64124 67.1542 5.79604 68.2384 4.08339 71.125C2.73676 73.404 2.5572 76.1939 3.1511 78.7352C3.69666 81.0418 4.81541 83.1823 6.67998 84.6878C8.80697 86.4211 11.5348 86.9667 14.1797 87.4639C18.8273 88.3548 24.0274 87.6436 28.53 89.156C33.1362 90.6891 37.1761 93.6378 42.0447 94.3215C48.6605 95.2607 55.4834 94.1488 61.4846 91.2139C63.3354 90.3161 65.4209 89.3008 66.664 87.5951C68.1971 85.4819 70.2964 85.0193 72.6582 84.1975C73.4455 83.9282 74.2328 83.6521 74.9924 83.3137C78.2174 81.8842 80.4273 78.7143 79.9301 75.075V75.0888Z" fill="#95DDF9"/>
</svg>
