<svg width="12" height="12" viewBox="0 0 12 12" fill="none" xmlns="http://www.w3.org/2000/svg">
<path d="M10.1831 0.183058C10.4271 -0.0610194 10.8228 -0.0610194 11.0668 0.183058C11.3109 0.427136 11.3109 0.82277 11.0668 1.06685L1.06685 11.0668C0.82277 11.3109 0.427136 11.3109 0.183058 11.0668C-0.0610194 10.8228 -0.0610194 10.4271 0.183058 10.1831L10.1831 0.183058Z" fill="#FDFDFD"/>
<path d="M0.183058 0.183058C0.427136 -0.0610194 0.82277 -0.0610194 1.06685 0.183058L11.0668 10.1831C11.3109 10.4271 11.3109 10.8228 11.0668 11.0668C10.8228 11.3109 10.4271 11.3109 10.1831 11.0668L0.183058 1.06685C-0.0610194 0.82277 -0.0610194 0.427136 0.183058 0.183058Z" fill="#FDFDFD"/>
</svg>
