<svg width="60" height="58" viewBox="0 0 60 58" fill="none" xmlns="http://www.w3.org/2000/svg">
<path d="M42.0063 37.0944H13.8202C13.0369 37.0944 12.4023 36.4592 12.4023 35.6765C12.4023 34.8938 13.0369 34.2585 13.8202 34.2585H42.0063C42.789 34.2585 43.4242 34.8938 43.4242 35.6765C43.4242 36.4592 42.789 37.0944 42.0063 37.0944Z" fill="#CBD5E1"/>
<path d="M35.3894 25.436H13.8202C13.0369 25.436 12.4023 24.8008 12.4023 24.0181C12.4023 23.2354 13.0369 22.6002 13.8202 22.6002H35.3894C36.1721 22.6002 36.8073 23.2354 36.8073 24.0181C36.8073 24.8008 36.1721 25.436 35.3894 25.436Z" fill="#CBD5E1"/>
<path d="M27.9139 57.4542C27.4387 57.4542 26.9944 57.216 26.7316 56.819L22.0355 49.7307H9.51573C4.26885 49.7307 0 45.4625 0 40.215V18.7832C0 13.5369 4.26822 9.26807 9.51573 9.26807H46.3113C51.5576 9.26807 55.8264 13.5363 55.8264 18.7832V40.215C55.8264 45.4618 51.5582 49.7307 46.3113 49.7307H33.7909L29.0961 56.819C28.8333 57.216 28.3896 57.4542 27.9139 57.4542ZM9.51636 12.1051C5.83296 12.1051 2.83645 15.1016 2.83645 18.7844V40.2162C2.83645 43.8996 5.83296 46.8961 9.51636 46.8961H22.7974C23.2726 46.8961 23.7168 47.1343 23.9796 47.5313L27.9139 53.4702L31.8474 47.5313C32.1102 47.1343 32.5539 46.8961 33.0296 46.8961H46.3113C49.9941 46.8961 52.9906 43.8996 52.9906 40.2162V18.7844C52.9906 15.1016 49.9941 12.1051 46.3113 12.1051H9.51573H9.51636Z" fill="#CBD5E1"/>
<path d="M58.5825 11.9324C58.5825 6.12529 53.8744 1.41785 48.0673 1.41785C42.2602 1.41785 37.5527 6.12592 37.5527 11.9324C37.5527 17.7389 42.2608 22.4482 48.0673 22.4482C53.8738 22.4482 58.5825 17.7402 58.5825 11.9324Z" fill="#CBD5E1"/>
<path d="M48.0672 23.8662C41.4875 23.8662 36.1348 18.5128 36.1348 11.9325C36.1348 5.35212 41.4875 0 48.0672 0C54.6469 0 60.0003 5.35275 60.0003 11.9325C60.0003 18.5122 54.6469 23.8662 48.0672 23.8662ZM48.0672 2.83581C43.051 2.83581 38.9706 6.91686 38.9706 11.9325C38.9706 16.9481 43.0516 21.0304 48.0672 21.0304C53.0828 21.0304 57.1645 16.9487 57.1645 11.9325C57.1645 6.91623 53.0835 2.83581 48.0672 2.83581Z" fill="#CBD5E1"/>
<path d="M48.0663 14.2566C47.2837 14.2566 46.6484 13.6213 46.6484 12.8386V5.82916C46.6484 5.04648 47.2837 4.41125 48.0663 4.41125C48.849 4.41125 49.4842 5.04648 49.4842 5.82916V12.8386C49.4842 13.6213 48.849 14.2566 48.0663 14.2566Z" fill="#F8FAFC"/>
<path d="M49.5393 17.7332C49.5393 16.9203 48.8808 16.2611 48.0672 16.2611C47.2536 16.2611 46.5957 16.9203 46.5957 17.7332C46.5957 18.5461 47.2543 19.2053 48.0672 19.2053C48.8801 19.2053 49.5393 18.5468 49.5393 17.7332Z" fill="#F8FAFC"/>
</svg>
